<svg xmlns="http://www.w3.org/2000/svg" version="1.1" xmlns:xlink="http://www.w3.org/1999/xlink" xmlns:svgjs="http://svgjs.dev/svgjs" width="1000" height="1125" viewBox="0 0 1000 1125"><g transform="matrix(1,0,0,1,0,0)"><svg viewBox="0 0 320 360" data-background-color="#ffffff" preserveAspectRatio="xMidYMid meet" height="1125" width="1000" xmlns="http://www.w3.org/2000/svg" xmlns:xlink="http://www.w3.org/1999/xlink"><g id="tight-bounds" transform="matrix(1,0,0,1,0,0)"><svg viewBox="0 0 320 360" height="360" width="320"><g><svg></svg></g><g><svg viewBox="0 0 320 360" height="360" width="320"><g><path xmlns="http://www.w3.org/2000/svg" d="M297.491 100.645c-12.426-21.51-112.674-79.355-137.491-79.355-24.817 0-125.028 57.845-137.491 79.355-11.591 20.02-11.591 138.726 0 158.746 12.463 21.474 112.674 79.319 137.491 79.319 24.817 0 125.064-57.845 137.491-79.355 11.591-20.02 11.591-138.69 0-158.71zM309.481 93.705c-14.461-24.998-119.469-86.295-149.481-86.295-30.012 0-135.02 61.297-149.481 86.295-14.025 24.199-14.025 148.391 0 172.59 14.461 24.998 119.469 86.295 149.481 86.295 30.012 0 135.02-61.297 149.481-86.259 14.025-24.235 14.025-148.427 0-172.626zM300.906 261.353c-12.753 22.055-115.472 81.317-140.906 81.318-25.434 0-128.153-59.298-140.906-81.354-11.881-20.529-11.881-142.178 0-162.707 12.753-22.019 115.472-81.281 140.906-81.281 25.434 0 128.153 59.298 140.906 81.318 11.881 20.529 11.881 142.178 0 162.706z" fill="#5e1914" fill-rule="nonzero" stroke="none" stroke-width="1" stroke-linecap="butt" stroke-linejoin="miter" stroke-miterlimit="10" stroke-dasharray="" stroke-dashoffset="0" font-family="none" font-weight="none" font-size="none" text-anchor="none" style="mix-blend-mode: normal" data-fill-palette-color="tertiary"></path></g><g transform="matrix(1,0,0,1,48,129.241347312134)"><svg viewBox="0 0 224 101.517305375732" height="101.517305375732" width="224"><g><svg viewBox="0 0 224.00000000000003 101.51730537573201" height="101.517305375732" width="224"><g><svg viewBox="0 0 224.00000000000003 45.520212267832065" height="45.520212267832065" width="224.00000000000003"><g id="textblocktransform"><svg viewBox="0 0 224.00000000000003 45.520212267832065" height="45.520212267832065" width="224.00000000000003" id="textblock"><g><svg viewBox="0 0 224.00000000000003 45.520212267832065" height="45.520212267832065" width="224.00000000000003"><g transform="matrix(1,0,0,1,0,0)"><svg width="224.00000000000003" viewBox="5.050000190734863 -31.950000762939453 160.16000366210938 32.54999923706055" height="45.520212267832065" data-palette-color="#ffffff"><path d="M8.95 0L5.05 0 5.05-31.4 8.95-31.4 8.95 0ZM22.9 0L18.95 0 18.95-31.4 29.05-31.4Q34.22-31.4 36.96-28.79 39.7-26.18 39.7-21.7L39.7-21.7Q39.7-17.28 36.96-14.69 34.22-12.1 29.05-12.1L29.05-12.1 22.9-12.1 22.9 0ZM22.9-28.05L22.9-15.5 29.05-15.5Q32.32-15.5 34.01-17.18 35.7-18.85 35.7-21.7L35.7-21.7Q35.7-24.6 34.01-26.33 32.32-28.05 29.05-28.05L29.05-28.05 22.9-28.05ZM50.57 0L46.62 0 46.62-31.4 56.72-31.4Q61.9-31.4 64.63-28.79 67.37-26.18 67.37-21.7L67.37-21.7Q67.37-17.28 64.63-14.69 61.9-12.1 56.72-12.1L56.72-12.1 50.57-12.1 50.57 0ZM50.57-28.05L50.57-15.5 56.72-15.5Q60-15.5 61.68-17.18 63.37-18.85 63.37-21.7L63.37-21.7Q63.37-24.6 61.68-26.33 60-28.05 56.72-28.05L56.72-28.05 50.57-28.05ZM72.79 0L68.69 0 79.49-31.4 84.24-31.4 94.79 0 90.69 0 88.04-8.05 75.54-8.05 72.79 0ZM81.79-26.65L76.54-11.1 87.04-11.1 81.79-26.65ZM101.17 0L101.17-31.4 106.77-31.4 117.57-9.7 117.17-9.7 127.97-31.4 133.42-31.4 133.42 0 129.47 0 129.47-27.35 130.17-27.35 118.67-3.95 116.07-3.95 104.62-27.2 105.07-27.2 105.07 0 101.17 0ZM153.56 0.6L153.56 0.6Q150.41 0.6 147.79-0.54 145.16-1.68 143.56-3.9 141.96-6.13 141.91-9.4L141.91-9.4 145.71-9.4Q145.71-7.2 146.79-5.79 147.86-4.38 149.64-3.69 151.41-3 153.51-3L153.51-3Q155.79-3 157.46-3.73 159.14-4.45 160.05-5.64 160.96-6.83 160.96-8.25L160.96-8.25Q160.96-10.25 159.74-11.49 158.51-12.73 156.11-13.5L156.11-13.5 150.56-15.45Q146.66-16.85 144.66-18.65 142.66-20.45 142.66-23.7L142.66-23.7Q142.66-27.35 145.47-29.65 148.29-31.95 153.46-31.95L153.46-31.95Q158.26-31.95 160.96-29.74 163.66-27.53 164.06-23.8L164.06-23.8 160.21-23.8Q159.84-25.98 158.18-27.19 156.51-28.4 153.46-28.4L153.46-28.4Q150.36-28.4 148.64-27.03 146.91-25.65 146.91-23.55L146.91-23.55Q146.91-21.83 148-20.81 149.09-19.8 151.41-19L151.41-19 157.91-16.75Q161.29-15.63 163.25-13.6 165.21-11.58 165.21-8.35L165.21-8.35Q165.21-5.85 163.88-3.83 162.54-1.8 159.94-0.6 157.34 0.6 153.56 0.6Z" opacity="1" transform="matrix(1,0,0,1,0,0)" fill="#ffffff" class="undefined-text-0" data-fill-palette-color="quaternary" id="text-0"></path></svg></g></svg></g></svg></g></svg></g><g transform="matrix(1,0,0,1,60.08800000000001,56.26644189917279)"><svg viewBox="0 0 103.82400000000001 45.25086347655922" height="45.25086347655922" width="103.82400000000001"><g><svg xmlns="http://www.w3.org/2000/svg" xmlns:xlink="http://www.w3.org/1999/xlink" version="1.1" x="8" y="0" viewBox="3 48.5 94.1300048828125 48.5" enable-background="new 0 0 100 100" xml:space="preserve" height="45.25086347655922" width="87.82400000000001" class="icon-icon-0" data-fill-palette-color="quaternary" id="icon-0"><path d="M82.227 52.111c-0.398 0-0.807 0.016-1.227 0.044V50c0-0.829-0.672-1.5-1.5-1.5S78 49.171 78 50v3.829c0 0.437 0.189 0.851 0.52 1.136 0.33 0.284 0.766 0.414 1.199 0.35 0.916-0.137 1.736-0.201 2.508-0.201 6.453 0 11.904 5.324 11.904 11.626 0 6.419-5.207 11.642-11.607 11.642-1.967 0-3.771-0.42-5.355-1.248-0.73-0.38-1.641-0.099-2.023 0.637C69.911 87.78 59.809 94 48.777 94h-13.1C19.313 94 6 80.33 6 63.527V50c0-0.829-0.671-1.5-1.5-1.5S3 49.171 3 50v13.527C3 81.984 17.659 97 35.677 97h13.101C60.466 97 71.2 90.677 77.12 80.4c1.666 0.649 3.478 0.979 5.403 0.979 8.055 0 14.607-6.568 14.607-14.643C97.131 58.811 90.305 52.111 82.227 52.111z" fill="#ffffff" data-fill-palette-color="quaternary"></path><path d="M76.938 73.973c1.555 1.041 3.91 1.506 5.556 1.506 4.825 0 8.604-3.91 8.604-8.902 0-4.828-4.216-8.906-9.205-8.906-1.037 0-2.643 0.197-3.892 0.637C77.4 58.518 77 59.085 77 59.721l0.004 4.385c0.014 2.912 0.023 5.662-0.679 8.224C76.154 72.951 76.4 73.611 76.938 73.973zM80 60.871c0.627-0.125 1.32-0.202 1.893-0.202 3.363 0 6.205 2.705 6.205 5.906 0 3.364-2.41 5.903-5.604 5.903-0.978 0-2.112-0.222-2.989-0.556 0.523-2.587 0.512-5.248 0.501-7.832L80 60.871z" fill="#ffffff" data-fill-palette-color="quaternary"></path><path fill="none" d="M70.781 65.748c0.193-0.002 0.371-0.004 0.529-0.006l-0.031-5.521c-1.125-0.291-3.553-0.729-7.952-0.729-2.834 0-6.093 0.181-9.685 0.537C41.695 61.215 37.666 61.298 33 61.395c-1.302 0.026-2.653 0.055-4.245 0.107-5.534 0.186-12.825-0.361-16.05-0.643-0.003 1.716-0.003 3.641 0.002 4.904 3.584 0.006 13.245 0.021 23.798 0.029L70.781 65.748z"></path><path d="M69.581 74.984c-0.024 1.182-0.06 2.8-1.158 3.832-0.42 0.394-1.178 0.838-2.371 0.805-2.903-0.12-3.502-1.982-3.858-3.137C61.844 75.361 61.714 75 59.855 75c-0.017 0-0.031 0-0.047 0-1.117 0-1.957 0.159-2.371 0.577-0.328 0.331-0.324 0.7-0.324 0.718 0.1 3.322 0.176 5.902-1.454 7.581-1.056 1.088-2.638 1.576-4.978 1.576-1.849 0-3.301-0.535-4.314-1.591-1.614-1.68-1.518-4.081-1.477-5.106 0.004-0.103 0.008-0.188 0.008-0.255 0-1.036-0.433-1.5-0.862-1.5-0.429 0-0.862 0.464-0.862 1.5 0 2.952-1.993 4.859-5.078 4.859-2.07 0-4.211-1.426-4.328-4.612l-0.003-0.101 0.01-0.102c0.047-0.525-0.009-1.794-0.486-2.316C33.186 76.116 33.028 76 32.65 76H12.122c0.792 1.873 1.712 3.604 2.639 4.835 0.046 0.202 0.121 0.397 0.25 0.567C19.816 87.771 27.118 91 36.712 91h10.624c9.594 0 16.896-3.229 21.702-9.598 0.129-0.17 0.204-0.365 0.25-0.566 1.144-1.52 2.295-3.797 3.21-6.165-0.768 0.003-1.768 0.007-2.91 0.009C69.585 74.786 69.583 74.893 69.581 74.984z" fill="#ffffff" data-fill-palette-color="quaternary"></path><path d="M35.514 74.217c1.37 1.512 1.3 3.893 1.257 4.503 0.06 1.104 0.494 1.64 1.326 1.64 2.078 0 2.078-1.256 2.078-1.858 0-2.954 1.943-4.5 3.862-4.5s3.862 1.546 3.862 4.5c0 0.099-0.004 0.226-0.01 0.375-0.028 0.697-0.086 2.149 0.643 2.908 0.426 0.442 1.15 0.669 2.149 0.669 1.436 0 2.385-0.229 2.826-0.684 0.746-0.77 0.688-2.807 0.61-5.386-0.011-0.089-0.097-1.603 1.094-2.887 1.017-1.099 2.613-1.657 4.663-1.636 4.055 0.022 4.762 2.304 5.184 3.666 0.312 1.002 0.33 1.063 1.118 1.096 0.161 0.005 0.228-0.018 0.228-0.018 0.146-0.199 0.169-1.203 0.179-1.685 0.021-0.971 0.069-3.243 2.099-3.243 2.172 0 4.004-0.009 4.832-0.013 0.461-1.606 0.76-3.124 0.803-4.324 0.002-0.021-0.004-0.041-0.004-0.062 0.002-0.03 0.01-0.061 0.01-0.092l-0.045-8.055c-0.004-0.554-0.313-1.061-0.803-1.318-0.258-0.135-2.731-1.324-10.146-1.324-2.933 0-6.291 0.186-9.981 0.553-11.83 1.174-15.805 1.256-20.407 1.352-1.314 0.026-2.678 0.055-4.285 0.108-7.096 0.24-17.203-0.771-17.294-0.78-0.424-0.043-0.841 0.096-1.155 0.379-0.314 0.282-0.494 0.687-0.496 1.108-0.019 6.146-0.023 7.903 0.152 8.587 0.119 1.485 0.541 3.326 1.145 5.202H32.65C33.802 73 34.792 73.421 35.514 74.217zM12.705 60.859c3.225 0.279 10.516 0.828 16.05 0.643 1.592-0.054 2.943-0.081 4.245-0.107 4.666-0.097 8.695-0.18 20.643-1.365 3.592-0.356 6.852-0.537 9.686-0.537 4.4 0 6.828 0.438 7.953 0.729l0.031 5.521c-0.158 0.002-0.338 0.004-0.53 0.006l-34.275 0.046c-10.554-0.008-20.214-0.022-23.798-0.028C12.702 64.5 12.702 62.575 12.705 60.859z" fill="#ffffff" data-fill-palette-color="quaternary"></path></svg></g></svg></g><g><rect width="60.087999999999994" height="4.105059719172156" y="56.26644189917278" x="163.91200000000003" fill="#ee0028" data-fill-palette-color="accent"></rect><rect width="60.087999999999994" height="4.105059719172156" y="56.26644189917278" x="1.4210854715202004e-14" fill="#ee0028" data-fill-palette-color="accent"></rect><rect width="60.087999999999994" height="4.105059719172156" y="64.4765613375171" x="163.91200000000003" fill="#ee0028" data-fill-palette-color="accent"></rect><rect width="60.087999999999994" height="4.105059719172156" y="64.4765613375171" x="1.4210854715202004e-14" fill="#ee0028" data-fill-palette-color="accent"></rect></g></svg></g></svg></g></svg></g><defs></defs></svg><rect width="320" height="360" fill="none" stroke="none" visibility="hidden"></rect></g></svg></g></svg>